<mxfile host="65bd71144e" pages="1" scale="10" border="0">
    <diagram id="HtkFVWh4NAZ_7xuYh-5z" name="Page-1">
        <mxGraphModel dx="1050" dy="613" grid="1" gridSize="10" guides="1" tooltips="1" connect="1" arrows="1" fold="1" page="1" pageScale="1" pageWidth="850" pageHeight="1100" math="0" shadow="0">
            <root>
                <mxCell id="0"/>
                <mxCell id="1" parent="0"/>
                <mxCell id="2" value="" style="shape=ext;double=1;rounded=1;whiteSpace=wrap;html=1;fontFamily=Times New Roman;fontSize=28;strokeWidth=2;" parent="1" vertex="1">
                    <mxGeometry x="260" y="280" width="360" height="230" as="geometry"/>
                </mxCell>
                <mxCell id="11" style="edgeStyle=orthogonalEdgeStyle;html=1;exitX=1;exitY=0.5;exitDx=0;exitDy=0;entryX=0.5;entryY=0;entryDx=0;entryDy=0;fontFamily=Times New Roman;fontSize=28;strokeWidth=2;" parent="1" source="3" target="9" edge="1">
                    <mxGeometry relative="1" as="geometry"/>
                </mxCell>
                <mxCell id="12" style="edgeStyle=orthogonalEdgeStyle;html=1;exitX=1;exitY=0.5;exitDx=0;exitDy=0;entryX=0.5;entryY=1;entryDx=0;entryDy=0;fontFamily=Times New Roman;fontSize=28;strokeWidth=2;" parent="1" source="3" target="10" edge="1">
                    <mxGeometry relative="1" as="geometry"/>
                </mxCell>
                <mxCell id="3" value="Tanh" style="shape=ext;double=1;rounded=0;whiteSpace=wrap;html=1;fontFamily=Times New Roman;fontSize=28;strokeWidth=2;" parent="1" vertex="1">
                    <mxGeometry x="397.5" y="375" width="85" height="40" as="geometry"/>
                </mxCell>
                <mxCell id="7" style="edgeStyle=orthogonalEdgeStyle;html=1;exitX=0.5;exitY=0;exitDx=0;exitDy=0;entryX=0.5;entryY=1;entryDx=0;entryDy=0;fontFamily=Times New Roman;fontSize=28;strokeWidth=2;" parent="1" source="5" target="3" edge="1">
                    <mxGeometry relative="1" as="geometry">
                        <Array as="points">
                            <mxPoint x="310" y="460"/>
                            <mxPoint x="440" y="460"/>
                        </Array>
                    </mxGeometry>
                </mxCell>
                <mxCell id="5" value="x&lt;sub style=&quot;font-size: 28px;&quot;&gt;t&lt;/sub&gt;" style="ellipse;whiteSpace=wrap;html=1;aspect=fixed;fontFamily=Times New Roman;fontSize=28;strokeWidth=2;" parent="1" vertex="1">
                    <mxGeometry x="280" y="560" width="60" height="60" as="geometry"/>
                </mxCell>
                <mxCell id="8" style="edgeStyle=orthogonalEdgeStyle;html=1;exitX=1;exitY=0.5;exitDx=0;exitDy=0;entryX=0.5;entryY=1;entryDx=0;entryDy=0;fontFamily=Times New Roman;fontSize=28;strokeWidth=2;" parent="1" source="6" target="3" edge="1">
                    <mxGeometry relative="1" as="geometry">
                        <Array as="points">
                            <mxPoint x="180" y="460"/>
                            <mxPoint x="440" y="460"/>
                        </Array>
                    </mxGeometry>
                </mxCell>
                <mxCell id="6" value="h&lt;sub style=&quot;font-size: 28px;&quot;&gt;t-1&lt;/sub&gt;" style="ellipse;whiteSpace=wrap;html=1;aspect=fixed;fontFamily=Times New Roman;fontSize=28;strokeWidth=2;" parent="1" vertex="1">
                    <mxGeometry x="100" y="415" width="80" height="80" as="geometry"/>
                </mxCell>
                <mxCell id="9" value="h&lt;sub style=&quot;font-size: 28px;&quot;&gt;t&lt;/sub&gt;" style="ellipse;whiteSpace=wrap;html=1;aspect=fixed;fontFamily=Times New Roman;fontSize=28;strokeWidth=2;" parent="1" vertex="1">
                    <mxGeometry x="700" y="425" width="60" height="60" as="geometry"/>
                </mxCell>
                <mxCell id="10" value="h&lt;sub style=&quot;font-size: 28px;&quot;&gt;t&lt;/sub&gt;" style="ellipse;whiteSpace=wrap;html=1;aspect=fixed;fontFamily=Times New Roman;fontSize=28;strokeWidth=2;" parent="1" vertex="1">
                    <mxGeometry x="530" y="160" width="60" height="60" as="geometry"/>
                </mxCell>
                <mxCell id="13" value="" style="shape=ext;double=1;rounded=1;whiteSpace=wrap;html=1;fontFamily=Times New Roman;fontSize=28;strokeWidth=2;" parent="1" vertex="1">
                    <mxGeometry x="240" y="920" width="360" height="230" as="geometry"/>
                </mxCell>
                <mxCell id="38" style="edgeStyle=none;html=1;exitX=0.5;exitY=0;exitDx=0;exitDy=0;fontSize=28;endArrow=circlePlus;endFill=0;strokeWidth=2;fontFamily=Times New Roman;" parent="1" source="16" edge="1">
                    <mxGeometry relative="1" as="geometry">
                        <mxPoint x="420.03846153846155" y="952" as="targetPoint"/>
                        <mxPoint x="420" y="1032" as="sourcePoint"/>
                    </mxGeometry>
                </mxCell>
                <mxCell id="16" value="Tanh" style="shape=ext;double=1;rounded=0;whiteSpace=wrap;html=1;fontFamily=Times New Roman;fontSize=28;strokeWidth=2;" parent="1" vertex="1">
                    <mxGeometry x="377.5" y="1040" width="85" height="40" as="geometry"/>
                </mxCell>
                <mxCell id="17" style="edgeStyle=orthogonalEdgeStyle;html=1;exitX=0.5;exitY=0;exitDx=0;exitDy=0;entryX=0.5;entryY=1;entryDx=0;entryDy=0;fontFamily=Times New Roman;fontSize=28;rounded=0;strokeWidth=2;" parent="1" source="18" target="16" edge="1">
                    <mxGeometry relative="1" as="geometry">
                        <Array as="points">
                            <mxPoint x="290" y="1100"/>
                            <mxPoint x="420" y="1100"/>
                        </Array>
                    </mxGeometry>
                </mxCell>
                <mxCell id="25" style="edgeStyle=orthogonalEdgeStyle;html=1;exitX=0.5;exitY=0;exitDx=0;exitDy=0;entryX=0.5;entryY=1;entryDx=0;entryDy=0;fontFamily=Times New Roman;fontSize=28;fontColor=#000000;rounded=0;strokeWidth=2;" parent="1" source="18" target="23" edge="1">
                    <mxGeometry relative="1" as="geometry">
                        <Array as="points">
                            <mxPoint x="290" y="1100"/>
                            <mxPoint x="275" y="1100"/>
                        </Array>
                    </mxGeometry>
                </mxCell>
                <mxCell id="26" style="edgeStyle=orthogonalEdgeStyle;html=1;exitX=0.5;exitY=0;exitDx=0;exitDy=0;entryX=0.5;entryY=1;entryDx=0;entryDy=0;fontFamily=Times New Roman;fontSize=28;fontColor=#000000;rounded=0;strokeWidth=2;" parent="1" source="18" target="24" edge="1">
                    <mxGeometry relative="1" as="geometry">
                        <Array as="points">
                            <mxPoint x="290" y="1100"/>
                            <mxPoint x="335" y="1100"/>
                        </Array>
                    </mxGeometry>
                </mxCell>
                <mxCell id="29" style="edgeStyle=orthogonalEdgeStyle;html=1;exitX=0.5;exitY=0;exitDx=0;exitDy=0;entryX=0.5;entryY=1;entryDx=0;entryDy=0;fontFamily=Times New Roman;fontSize=28;fontColor=#000000;rounded=0;strokeWidth=2;" parent="1" source="18" target="27" edge="1">
                    <mxGeometry relative="1" as="geometry">
                        <Array as="points">
                            <mxPoint x="290" y="1100"/>
                            <mxPoint x="505" y="1100"/>
                        </Array>
                    </mxGeometry>
                </mxCell>
                <mxCell id="18" value="x&lt;sub style=&quot;font-size: 28px;&quot;&gt;t&lt;/sub&gt;" style="ellipse;whiteSpace=wrap;html=1;aspect=fixed;fontFamily=Times New Roman;fontSize=28;strokeWidth=2;" parent="1" vertex="1">
                    <mxGeometry x="260" y="1200" width="60" height="60" as="geometry"/>
                </mxCell>
                <mxCell id="19" style="edgeStyle=orthogonalEdgeStyle;html=1;exitX=1;exitY=0.5;exitDx=0;exitDy=0;entryX=0.5;entryY=1;entryDx=0;entryDy=0;fontFamily=Times New Roman;fontSize=28;rounded=0;strokeWidth=2;" parent="1" source="20" target="16" edge="1">
                    <mxGeometry relative="1" as="geometry">
                        <Array as="points">
                            <mxPoint x="160" y="1100"/>
                            <mxPoint x="420" y="1100"/>
                        </Array>
                    </mxGeometry>
                </mxCell>
                <mxCell id="20" value="h&lt;sub style=&quot;font-size: 28px;&quot;&gt;t-1&lt;/sub&gt;" style="ellipse;whiteSpace=wrap;html=1;aspect=fixed;fontFamily=Times New Roman;fontSize=28;strokeWidth=2;" parent="1" vertex="1">
                    <mxGeometry x="80" y="1055" width="80" height="80" as="geometry"/>
                </mxCell>
                <mxCell id="21" value="h&lt;sub style=&quot;font-size: 28px;&quot;&gt;t&lt;/sub&gt;" style="ellipse;whiteSpace=wrap;html=1;aspect=fixed;fontFamily=Times New Roman;fontSize=28;strokeWidth=2;" parent="1" vertex="1">
                    <mxGeometry x="680" y="1090" width="60" height="60" as="geometry"/>
                </mxCell>
                <mxCell id="22" value="h&lt;sub style=&quot;font-size: 28px;&quot;&gt;t&lt;/sub&gt;" style="ellipse;whiteSpace=wrap;html=1;aspect=fixed;fontFamily=Times New Roman;fontSize=28;strokeWidth=2;" parent="1" vertex="1">
                    <mxGeometry x="600" y="800" width="60" height="60" as="geometry"/>
                </mxCell>
                <mxCell id="36" style="edgeStyle=none;html=1;exitX=0.5;exitY=0;exitDx=0;exitDy=0;fontSize=28;endArrow=none;endFill=0;strokeWidth=2;fontFamily=Times New Roman;" parent="1" edge="1">
                    <mxGeometry relative="1" as="geometry">
                        <mxPoint x="275" y="962" as="targetPoint"/>
                        <mxPoint x="275" y="1047" as="sourcePoint"/>
                        <Array as="points">
                            <mxPoint x="275" y="962"/>
                        </Array>
                    </mxGeometry>
                </mxCell>
                <mxCell id="23" value="&lt;div style=&quot;text-align: left; font-size: 28px;&quot;&gt;σ&lt;/div&gt;" style="rounded=0;whiteSpace=wrap;html=1;fontFamily=Times New Roman;fontSize=28;strokeWidth=2;" parent="1" vertex="1">
                    <mxGeometry x="260" y="1045" width="30" height="30" as="geometry"/>
                </mxCell>
                <mxCell id="24" value="&lt;div style=&quot;text-align: left; font-size: 28px;&quot;&gt;σ&lt;/div&gt;" style="rounded=0;whiteSpace=wrap;html=1;fontFamily=Times New Roman;fontSize=28;strokeWidth=2;" parent="1" vertex="1">
                    <mxGeometry x="320" y="1045" width="30" height="30" as="geometry"/>
                </mxCell>
                <mxCell id="27" value="&lt;div style=&quot;text-align: left; font-size: 28px;&quot;&gt;σ&lt;/div&gt;" style="rounded=0;whiteSpace=wrap;html=1;fontFamily=Times New Roman;fontSize=28;strokeWidth=2;" parent="1" vertex="1">
                    <mxGeometry x="490" y="1045" width="30" height="30" as="geometry"/>
                </mxCell>
                <mxCell id="32" style="edgeStyle=orthogonalEdgeStyle;html=1;exitX=1;exitY=0.5;exitDx=0;exitDy=0;fontFamily=Times New Roman;fontSize=28;fontColor=#000000;strokeWidth=2;" parent="1" source="30" target="31" edge="1">
                    <mxGeometry relative="1" as="geometry"/>
                </mxCell>
                <mxCell id="30" value="c&lt;sub style=&quot;font-size: 28px;&quot;&gt;t-1&lt;/sub&gt;" style="ellipse;whiteSpace=wrap;html=1;aspect=fixed;fontFamily=Times New Roman;fontSize=28;strokeWidth=2;" parent="1" vertex="1">
                    <mxGeometry x="80" y="920" width="80" height="80" as="geometry"/>
                </mxCell>
                <mxCell id="31" value="c&lt;sub style=&quot;font-size: 28px;&quot;&gt;t&lt;/sub&gt;" style="ellipse;whiteSpace=wrap;html=1;aspect=fixed;fontFamily=Times New Roman;fontSize=28;strokeWidth=2;" parent="1" vertex="1">
                    <mxGeometry x="670" y="920" width="80" height="80" as="geometry"/>
                </mxCell>
                <mxCell id="42" style="edgeStyle=orthogonalEdgeStyle;html=1;exitX=0.5;exitY=0;exitDx=0;exitDy=0;fontSize=28;endArrow=none;endFill=0;strokeWidth=2;fontFamily=Times New Roman;" parent="1" edge="1">
                    <mxGeometry relative="1" as="geometry">
                        <mxPoint x="560.0384615384615" y="960" as="targetPoint"/>
                        <mxPoint x="560" y="980" as="sourcePoint"/>
                    </mxGeometry>
                </mxCell>
                <mxCell id="43" style="edgeStyle=orthogonalEdgeStyle;html=1;exitX=0.5;exitY=1;exitDx=0;exitDy=0;entryX=0;entryY=0.5;entryDx=0;entryDy=0;fontSize=28;endArrow=classic;endFill=1;strokeWidth=2;fontFamily=Times New Roman;" parent="1" target="21" edge="1">
                    <mxGeometry relative="1" as="geometry">
                        <Array as="points">
                            <mxPoint x="560" y="1120"/>
                        </Array>
                        <mxPoint x="560" y="1020" as="sourcePoint"/>
                    </mxGeometry>
                </mxCell>
                <mxCell id="45" value="" style="endArrow=classic;html=1;fontSize=28;entryX=0.5;entryY=1;entryDx=0;entryDy=0;strokeWidth=2;fontFamily=Times New Roman;" parent="1" target="22" edge="1">
                    <mxGeometry width="50" height="50" relative="1" as="geometry">
                        <mxPoint x="630" y="1120" as="sourcePoint"/>
                        <mxPoint x="670" y="1070" as="targetPoint"/>
                    </mxGeometry>
                </mxCell>
                <mxCell id="46" style="edgeStyle=none;html=1;exitX=0.5;exitY=0;exitDx=0;exitDy=0;fontSize=28;endArrow=none;endFill=0;startArrow=none;strokeWidth=2;fontFamily=Times New Roman;" parent="1" source="48" edge="1">
                    <mxGeometry relative="1" as="geometry">
                        <mxPoint x="274.92" y="960" as="targetPoint"/>
                        <mxPoint x="274.92" y="1045" as="sourcePoint"/>
                        <Array as="points">
                            <mxPoint x="274.92" y="960"/>
                        </Array>
                    </mxGeometry>
                </mxCell>
                <mxCell id="48" value="" style="shape=sumEllipse;perimeter=ellipsePerimeter;whiteSpace=wrap;html=1;backgroundOutline=1;labelBackgroundColor=#2A2A2A;fontSize=28;strokeWidth=2;fontFamily=Times New Roman;" parent="1" vertex="1">
                    <mxGeometry x="267" y="952" width="16" height="16" as="geometry"/>
                </mxCell>
                <mxCell id="49" value="" style="edgeStyle=none;html=1;exitX=0.5;exitY=0;exitDx=0;exitDy=0;fontSize=28;endArrow=none;endFill=0;strokeWidth=2;fontFamily=Times New Roman;" parent="1" target="48" edge="1">
                    <mxGeometry relative="1" as="geometry">
                        <mxPoint x="274.9200000000001" y="960" as="targetPoint"/>
                        <mxPoint x="274.9200000000001" y="1045" as="sourcePoint"/>
                        <Array as="points"/>
                    </mxGeometry>
                </mxCell>
                <mxCell id="50" value="" style="shape=sumEllipse;perimeter=ellipsePerimeter;whiteSpace=wrap;html=1;backgroundOutline=1;labelBackgroundColor=#2A2A2A;fontSize=28;strokeWidth=2;fontFamily=Times New Roman;" parent="1" vertex="1">
                    <mxGeometry x="412" y="992" width="16" height="16" as="geometry"/>
                </mxCell>
                <mxCell id="51" value="" style="edgeStyle=orthogonalEdgeStyle;html=1;exitX=0.5;exitY=0;exitDx=0;exitDy=0;fontSize=28;endArrow=none;endFill=0;entryX=0;entryY=0.5;entryDx=0;entryDy=0;strokeWidth=2;fontFamily=Times New Roman;" parent="1" source="24" target="50" edge="1">
                    <mxGeometry relative="1" as="geometry">
                        <mxPoint x="420" y="1000" as="targetPoint"/>
                        <mxPoint x="335.0000000000001" y="1045" as="sourcePoint"/>
                        <Array as="points"/>
                    </mxGeometry>
                </mxCell>
                <mxCell id="52" value="" style="shape=sumEllipse;perimeter=ellipsePerimeter;whiteSpace=wrap;html=1;backgroundOutline=1;labelBackgroundColor=#2A2A2A;fontSize=28;strokeWidth=2;fontFamily=Times New Roman;" parent="1" vertex="1">
                    <mxGeometry x="552" y="1024" width="16" height="16" as="geometry"/>
                </mxCell>
                <mxCell id="53" value="" style="edgeStyle=orthogonalEdgeStyle;html=1;exitX=0.5;exitY=0;exitDx=0;exitDy=0;fontSize=28;endArrow=none;endFill=0;entryX=0;entryY=0.5;entryDx=0;entryDy=0;strokeWidth=2;fontFamily=Times New Roman;" parent="1" source="27" target="52" edge="1">
                    <mxGeometry relative="1" as="geometry">
                        <mxPoint x="568" y="1030" as="targetPoint"/>
                        <mxPoint x="505" y="1045" as="sourcePoint"/>
                        <Array as="points"/>
                    </mxGeometry>
                </mxCell>
                <mxCell id="56" value="Tanh" style="ellipse;whiteSpace=wrap;html=1;strokeWidth=2;fontSize=21;fontFamily=Times New Roman;" parent="1" vertex="1">
                    <mxGeometry x="535" y="985.5" width="50" height="29" as="geometry"/>
                </mxCell>
            </root>
        </mxGraphModel>
    </diagram>
</mxfile>